<svg x="0px" y="0px" preserveAspectRatio="xMidYMid meet" viewBox="0 0 53.3 64" class="icon map-marker" style="fill: currentcolor; vertical-align: middle; width: 14px; height: 14px;"><g><path d="M26.7,0c-0.1,0-0.2,0-0.3,0C11.8,0,0,11.8,0,26.4c0,0.2,0,0.4,0,0.5c0,23.4,24.9,36.3,26,36.9c0.2,0.1,0.4,0.2,0.7,0.2 s0.5-0.1,0.7-0.2c1-0.5,26-13.5,26-36.9c0-0.1,0-0.3,0-0.5C53.3,11.8,41.5,0,26.9,0C26.8,0,26.8,0,26.7,0L26.7,0z M26.7,31.8 c-4.9,0-8.8-3.9-8.8-8.8s3.9-8.8,8.8-8.8s8.8,3.9,8.8,8.8S31.5,31.8,26.7,31.8z"></path></g></svg>
